ffmpeg started on 2026-01-18 at 20:17:49
Report written to "C:\Dev\OSPanel\domains\Java-AT\modules\ffmpeg\FFMetrics\reports\ssim_report-6.txt"
Log level: 32
Command line:
ffmpeg -hide_banner -nostdin -r 24000/1001 -i "F:\\Convert\\files\\[DC] Make Heroine ga Oosugiru - 07_Telegram_HEVC(158).mkv" -r 24000/1001 -i "F:\\Convert\\files\\[DC] Make Heroine ga Oosugiru - 07_Telegram.mp4" -lavfi "[0:v]settb=AVTB,setpts=PTS-STARTPTS,format=pix_fmts=yuv420p10le,fps=24000/1001,scale=1920:1080:flags=lanczos:param0=3:out_range=limited:out_color_matrix=bt709:out_chroma_loc=left,setsar=1/1,setdar=(1920/1080)*(1/1),colorspace=format=yuv420p10:range=tv:primaries=bt709:trc=bt709:space=bt709:fast=0[main];[1:v]settb=AVTB,setpts=PTS-STARTPTS,format=pix_fmts=yuv420p,fps=24000/1001,scale=1920:1080:flags=lanczos:param0=3:out_range=limited:out_color_matrix=bt709:out_chroma_loc=left,setsar=1.000,setdar=1.778,colorspace=format=yuv420p:range=tv:primaries=bt709:trc=bt709:space=bt709:fast=0[ref];[main][ref]ssim=eof_action=endall:stats_file='C\\:/Dev/OSPanel/domains/Java-AT/modules/ffmpeg/FFMetrics/logs/ssim_logfile-6.txt'" -f null -
Input #0, matroska,webm, from 'F:\Convert\files\[DC] Make Heroine ga Oosugiru - 07_Telegram_HEVC(158).mkv':
  Metadata:
    COMPATIBLE_BRANDS: isomiso2avc1mp41
    MAJOR_BRAND     : isom
    MINOR_VERSION   : 512
    ENCODER         : Lavf61.7.100
  Duration: 00:24:06.79, start: -0.021000, bitrate: 998 kb/s
  Stream #0:0: Video: hevc (Main 10), yuv420p10le(tv, bt709, progressive), 1920x1080 [SAR 1:1 DAR 16:9], 23.98 fps, 23.98 tbr, 1k tbn (default)
      Metadata:
        HANDLER_NAME    : VideoHandler
        VENDOR_ID       : [0][0][0][0]
        ENCODER         : Lavc61.19.100 libx265
        BPS             : 801211
        DURATION        : 00:24:06.569708333
        NUMBER_OF_FRAMES: 34683
        NUMBER_OF_BYTES : 144876025
        _STATISTICS_WRITING_APP: mkvpropedit v94.0 ('Initiate') 64-bit
        _STATISTICS_WRITING_DATE_UTC: 2026-01-18 09:19:00
        _STATISTICS_TAGS: BPS DURATION NUMBER_OF_FRAMES NUMBER_OF_BYTES
  Stream #0:1: Audio: aac (LC), 48000 Hz, stereo, fltp (default)
      Metadata:
        HANDLER_NAME    : SoundHandler
        VENDOR_ID       : [0][0][0][0]
        ENCODER         : Lavc61.19.100 aac
        BPS             : 193194
        DURATION        : 00:24:06.784000000
        NUMBER_OF_FRAMES: 67819
        NUMBER_OF_BYTES : 34938755
        _STATISTICS_WRITING_APP: mkvpropedit v94.0 ('Initiate') 64-bit
        _STATISTICS_WRITING_DATE_UTC: 2026-01-18 09:19:00
        _STATISTICS_TAGS: BPS DURATION NUMBER_OF_FRAMES NUMBER_OF_BYTES
Input #1, mov,mp4,m4a,3gp,3g2,mj2, from 'F:\Convert\files\[DC] Make Heroine ga Oosugiru - 07_Telegram.mp4':
  Metadata:
    major_brand     : isom
    minor_version   : 512
    compatible_brands: isomiso2avc1mp41
    encoder         : Lavf60.16.100
  Duration: 00:24:06.74, start: 0.000000, bitrate: 3764 kb/s
  Stream #1:0[0x1](und): Video: h264 (High) (avc1 / 0x31637661), yuv420p(tv, bt709, progressive), 1920x1080 [SAR 1:1 DAR 16:9], 3616 kb/s, 23.98 fps, 23.98 tbr, 24k tbn (default)
      Metadata:
        handler_name    : VideoHandler
        vendor_id       : [0][0][0][0]
        encoder         : Lavc60.31.102 h264_qsv
  Stream #1:1[0x2](und): Audio: aac (HE-AACv2) (mp4a / 0x6134706D), 48000 Hz, stereo, fltp, 144 kb/s (default)
      Metadata:
        handler_name    : SoundHandler
        vendor_id       : [0][0][0][0]
Stream mapping:
  Stream #0:0 (hevc) -> settb:default
  Stream #1:0 (h264) -> settb:default
  ssim:default -> Stream #0:0 (wrapped_avframe)
  Stream #0:1 -> #0:1 (aac (native) -> pcm_s16le (native))
Output #0, null, to 'pipe:':
  Metadata:
    COMPATIBLE_BRANDS: isomiso2avc1mp41
    MAJOR_BRAND     : isom
    MINOR_VERSION   : 512
    encoder         : Lavf61.7.100
  Stream #0:0: Video: wrapped_avframe, yuv420p10le(tv, bt709, progressive), 1920x1080 [SAR 1:1 DAR 16:9], q=2-31, 200 kb/s, 23.98 fps, 23.98 tbn
      Metadata:
        encoder         : Lavc61.19.100 wrapped_avframe
  Stream #0:1: Audio: pcm_s16le, 48000 Hz, stereo, s16, 1536 kb/s (default)
      Metadata:
        HANDLER_NAME    : SoundHandler
        VENDOR_ID       : [0][0][0][0]
        _STATISTICS_TAGS: BPS DURATION NUMBER_OF_FRAMES NUMBER_OF_BYTES
        BPS             : 193194
        DURATION        : 00:24:06.784000000
        NUMBER_OF_FRAMES: 67819
        NUMBER_OF_BYTES : 34938755
        _STATISTICS_WRITING_APP: mkvpropedit v94.0 ('Initiate') 64-bit
        _STATISTICS_WRITING_DATE_UTC: 2026-01-18 09:19:00
        encoder         : Lavc61.19.100 pcm_s16le
frame=  135 fps=0.0 q=-0.0 size=N/A time=00:00:05.63 bitrate=N/A speed=10.7x    frame=  338 fps=326 q=-0.0 size=N/A time=00:00:14.09 bitrate=N/A speed=13.6x    frame=  540 fps=349 q=-0.0 size=N/A time=00:00:22.52 bitrate=N/A speed=14.5x    frame=  745 fps=362 q=-0.0 size=N/A time=00:00:31.07 bitrate=N/A speed=15.1x    frame=  928 fps=359 q=-0.0 size=N/A time=00:00:38.70 bitrate=N/A speed=  15x    frame= 1086 fps=351 q=-0.0 size=N/A time=00:00:45.29 bitrate=N/A speed=14.6x    frame= 1257 fps=348 q=-0.0 size=N/A time=00:00:52.42 bitrate=N/A speed=14.5x    frame= 1435 fps=348 q=-0.0 size=N/A time=00:00:59.85 bitrate=N/A speed=14.5x    frame= 1594 fps=343 q=-0.0 size=N/A time=00:01:06.48 bitrate=N/A speed=14.3x    frame= 1762 fps=341 q=-0.0 size=N/A time=00:01:13.49 bitrate=N/A speed=14.2x    frame= 1930 fps=340 q=-0.0 size=N/A time=00:01:20.49 bitrate=N/A speed=14.2x    frame= 2074 fps=335 q=-0.0 size=N/A time=00:01:26.50 bitrate=N/A speed=  14x    frame= 2225 fps=332 q=-0.0 size=N/A time=00:01:32.80 bitrate=N/A speed=13.8x    frame= 2385 fps=330 q=-0.0 size=N/A time=00:01:39.47 bitrate=N/A speed=13.8x    frame= 2525 fps=326 q=-0.0 size=N/A time=00:01:45.31 bitrate=N/A speed=13.6x    frame= 2690 fps=326 q=-0.0 size=N/A time=00:01:52.19 bitrate=N/A speed=13.6x    frame= 2880 fps=328 q=-0.0 size=N/A time=00:02:00.12 bitrate=N/A speed=13.7x    frame= 3067 fps=330 q=-0.0 size=N/A time=00:02:07.91 bitrate=N/A speed=13.8x    frame= 3265 fps=333 q=-0.0 size=N/A time=00:02:16.17 bitrate=N/A speed=13.9x    frame= 3464 fps=336 q=-0.0 size=N/A time=00:02:24.47 bitrate=N/A speed=  14x    frame= 3665 fps=338 q=-0.0 size=N/A time=00:02:32.86 bitrate=N/A speed=14.1x    frame= 3869 fps=341 q=-0.0 size=N/A time=00:02:41.36 bitrate=N/A speed=14.2x    frame= 4069 fps=343 q=-0.0 size=N/A time=00:02:49.71 bitrate=N/A speed=14.3x    frame= 4265 fps=345 q=-0.0 size=N/A time=00:02:57.88 bitrate=N/A speed=14.4x    frame= 4462 fps=346 q=-0.0 size=N/A time=00:03:06.10 bitrate=N/A speed=14.4x    frame= 4674 fps=348 q=-0.0 size=N/A time=00:03:14.94 bitrate=N/A speed=14.5x    frame= 4872 fps=350 q=-0.0 size=N/A time=00:03:23.20 bitrate=N/A speed=14.6x    frame= 5071 fps=351 q=-0.0 size=N/A time=00:03:31.50 bitrate=N/A speed=14.6x    frame= 5265 fps=352 q=-0.0 size=N/A time=00:03:39.59 bitrate=N/A speed=14.7x    frame= 5469 fps=354 q=-0.0 size=N/A time=00:03:48.10 bitrate=N/A speed=14.8x    frame= 5670 fps=355 q=-0.0 size=N/A time=00:03:56.48 bitrate=N/A speed=14.8x    frame= 5873 fps=356 q=-0.0 size=N/A time=00:04:04.95 bitrate=N/A speed=14.8x    frame= 6071 fps=357 q=-0.0 size=N/A time=00:04:13.21 bitrate=N/A speed=14.9x    frame= 6270 fps=358 q=-0.0 size=N/A time=00:04:21.51 bitrate=N/A speed=14.9x    frame= 6468 fps=358 q=-0.0 size=N/A time=00:04:29.76 bitrate=N/A speed=  15x    frame= 6678 fps=360 q=-0.0 size=N/A time=00:04:38.52 bitrate=N/A speed=  15x    frame= 6878 fps=360 q=-0.0 size=N/A time=00:04:46.86 bitrate=N/A speed=  15x    frame= 7072 fps=361 q=-0.0 size=N/A time=00:04:54.96 bitrate=N/A speed=15.1x    frame= 7267 fps=361 q=-0.0 size=N/A time=00:05:03.09 bitrate=N/A speed=15.1x    frame= 7462 fps=362 q=-0.0 size=N/A time=00:05:11.22 bitrate=N/A speed=15.1x    frame= 7653 fps=362 q=-0.0 size=N/A time=00:05:19.19 bitrate=N/A speed=15.1x    frame= 7846 fps=362 q=-0.0 size=N/A time=00:05:27.24 bitrate=N/A speed=15.1x    frame= 8040 fps=363 q=-0.0 size=N/A time=00:05:35.33 bitrate=N/A speed=15.1x    frame= 8236 fps=363 q=-0.0 size=N/A time=00:05:43.50 bitrate=N/A speed=15.1x    frame= 8438 fps=364 q=-0.0 size=N/A time=00:05:51.93 bitrate=N/A speed=15.2x    frame= 8634 fps=364 q=-0.0 size=N/A time=00:06:00.10 bitrate=N/A speed=15.2x    frame= 8832 fps=364 q=-0.0 size=N/A time=00:06:08.36 bitrate=N/A speed=15.2x    frame= 9026 fps=365 q=-0.0 size=N/A time=00:06:16.45 bitrate=N/A speed=15.2x    frame= 9236 fps=365 q=-0.0 size=N/A time=00:06:25.21 bitrate=N/A speed=15.2x    frame= 9433 fps=366 q=-0.0 size=N/A time=00:06:33.43 bitrate=N/A speed=15.3x    frame= 9633 fps=366 q=-0.0 size=N/A time=00:06:41.77 bitrate=N/A speed=15.3x    frame= 9829 fps=367 q=-0.0 size=N/A time=00:06:49.95 bitrate=N/A speed=15.3x    frame=10035 fps=367 q=-0.0 size=N/A time=00:06:58.54 bitrate=N/A speed=15.3x    frame=10230 fps=367 q=-0.0 size=N/A time=00:07:06.67 bitrate=N/A speed=15.3x    frame=10424 fps=368 q=-0.0 size=N/A time=00:07:14.76 bitrate=N/A speed=15.3x    frame=10618 fps=368 q=-0.0 size=N/A time=00:07:22.85 bitrate=N/A speed=15.3x    frame=10822 fps=368 q=-0.0 size=N/A time=00:07:31.36 bitrate=N/A speed=15.4x    frame=11020 fps=368 q=-0.0 size=N/A time=00:07:39.62 bitrate=N/A speed=15.4x    frame=11212 fps=369 q=-0.0 size=N/A time=00:07:47.63 bitrate=N/A speed=15.4x    frame=11408 fps=369 q=-0.0 size=N/A time=00:07:55.80 bitrate=N/A speed=15.4x    frame=11607 fps=369 q=-0.0 size=N/A time=00:08:04.10 bitrate=N/A speed=15.4x    frame=11804 fps=369 q=-0.0 size=N/A time=00:08:12.32 bitrate=N/A speed=15.4x    frame=12003 fps=369 q=-0.0 size=N/A time=00:08:20.62 bitrate=N/A speed=15.4x    frame=12196 fps=370 q=-0.0 size=N/A time=00:08:28.67 bitrate=N/A speed=15.4x    frame=12402 fps=370 q=-0.0 size=N/A time=00:08:37.26 bitrate=N/A speed=15.4x    frame=12600 fps=370 q=-0.0 size=N/A time=00:08:45.52 bitrate=N/A speed=15.4x    frame=12796 fps=370 q=-0.0 size=N/A time=00:08:53.69 bitrate=N/A speed=15.4x    frame=12992 fps=371 q=-0.0 size=N/A time=00:09:01.87 bitrate=N/A speed=15.5x    frame=13196 fps=371 q=-0.0 size=N/A time=00:09:10.38 bitrate=N/A speed=15.5x    frame=13388 fps=371 q=-0.0 size=N/A time=00:09:18.39 bitrate=N/A speed=15.5x    frame=13585 fps=371 q=-0.0 size=N/A time=00:09:26.60 bitrate=N/A speed=15.5x    frame=13780 fps=371 q=-0.0 size=N/A time=00:09:34.74 bitrate=N/A speed=15.5x    frame=13984 fps=371 q=-0.0 size=N/A time=00:09:43.24 bitrate=N/A speed=15.5x    frame=14163 fps=371 q=-0.0 size=N/A time=00:09:50.71 bitrate=N/A speed=15.5x    frame=14354 fps=371 q=-0.0 size=N/A time=00:09:58.68 bitrate=N/A speed=15.5x    frame=14552 fps=371 q=-0.0 size=N/A time=00:10:06.93 bitrate=N/A speed=15.5x    frame=14747 fps=371 q=-0.0 size=N/A time=00:10:15.07 bitrate=N/A speed=15.5x    frame=14949 fps=371 q=-0.0 size=N/A time=00:10:23.49 bitrate=N/A speed=15.5x    frame=15128 fps=371 q=-0.0 size=N/A time=00:10:30.96 bitrate=N/A speed=15.5x    frame=15309 fps=371 q=-0.0 size=N/A time=00:10:38.51 bitrate=N/A speed=15.5x    frame=15507 fps=371 q=-0.0 size=N/A time=00:10:46.77 bitrate=N/A speed=15.5x    frame=15709 fps=371 q=-0.0 size=N/A time=00:10:55.19 bitrate=N/A speed=15.5x    frame=15901 fps=371 q=-0.0 size=N/A time=00:11:03.20 bitrate=N/A speed=15.5x    frame=16105 fps=372 q=-0.0 size=N/A time=00:11:11.71 bitrate=N/A speed=15.5x    frame=16314 fps=372 q=-0.0 size=N/A time=00:11:20.42 bitrate=N/A speed=15.5x    frame=16513 fps=372 q=-0.0 size=N/A time=00:11:28.72 bitrate=N/A speed=15.5x    frame=16704 fps=372 q=-0.0 size=N/A time=00:11:36.69 bitrate=N/A speed=15.5x    frame=16906 fps=372 q=-0.0 size=N/A time=00:11:45.12 bitrate=N/A speed=15.5x    frame=17106 fps=373 q=-0.0 size=N/A time=00:11:53.46 bitrate=N/A speed=15.5x    frame=17312 fps=373 q=-0.0 size=N/A time=00:12:02.05 bitrate=N/A speed=15.5x    frame=17506 fps=373 q=-0.0 size=N/A time=00:12:10.14 bitrate=N/A speed=15.5x    frame=17696 fps=373 q=-0.0 size=N/A time=00:12:18.07 bitrate=N/A speed=15.5x    frame=17896 fps=373 q=-0.0 size=N/A time=00:12:26.41 bitrate=N/A speed=15.6x    frame=18095 fps=373 q=-0.0 size=N/A time=00:12:34.71 bitrate=N/A speed=15.6x    frame=18289 fps=373 q=-0.0 size=N/A time=00:12:42.80 bitrate=N/A speed=15.6x    frame=18480 fps=373 q=-0.0 size=N/A time=00:12:50.77 bitrate=N/A speed=15.6x    frame=18676 fps=373 q=-0.0 size=N/A time=00:12:58.94 bitrate=N/A speed=15.6x    frame=18881 fps=373 q=-0.0 size=N/A time=00:13:07.49 bitrate=N/A speed=15.6x    frame=19079 fps=374 q=-0.0 size=N/A time=00:13:15.75 bitrate=N/A speed=15.6x    frame=19287 fps=374 q=-0.0 size=N/A time=00:13:24.42 bitrate=N/A speed=15.6x    frame=19489 fps=374 q=-0.0 size=N/A time=00:13:32.85 bitrate=N/A speed=15.6x    frame=19683 fps=374 q=-0.0 size=N/A time=00:13:40.94 bitrate=N/A speed=15.6x    frame=19890 fps=374 q=-0.0 size=N/A time=00:13:49.57 bitrate=N/A speed=15.6x    frame=20085 fps=374 q=-0.0 size=N/A time=00:13:57.71 bitrate=N/A speed=15.6x    frame=20297 fps=375 q=-0.0 size=N/A time=00:14:06.55 bitrate=N/A speed=15.6x    frame=20488 fps=375 q=-0.0 size=N/A time=00:14:14.52 bitrate=N/A speed=15.6x    frame=20670 fps=374 q=-0.0 size=N/A time=00:14:22.11 bitrate=N/A speed=15.6x    frame=20876 fps=375 q=-0.0 size=N/A time=00:14:30.70 bitrate=N/A speed=15.6x    frame=21080 fps=375 q=-0.0 size=N/A time=00:14:39.21 bitrate=N/A speed=15.6x    frame=21270 fps=375 q=-0.0 size=N/A time=00:14:47.13 bitrate=N/A speed=15.6x    frame=21469 fps=375 q=-0.0 size=N/A time=00:14:55.43 bitrate=N/A speed=15.6x    frame=21669 fps=375 q=-0.0 size=N/A time=00:15:03.77 bitrate=N/A speed=15.6x    frame=21869 fps=375 q=-0.0 size=N/A time=00:15:12.11 bitrate=N/A speed=15.6x    frame=22066 fps=375 q=-0.0 size=N/A time=00:15:20.33 bitrate=N/A speed=15.6x    frame=22264 fps=375 q=-0.0 size=N/A time=00:15:28.59 bitrate=N/A speed=15.7x    frame=22466 fps=375 q=-0.0 size=N/A time=00:15:37.01 bitrate=N/A speed=15.7x    frame=22666 fps=376 q=-0.0 size=N/A time=00:15:45.36 bitrate=N/A speed=15.7x    frame=22863 fps=376 q=-0.0 size=N/A time=00:15:53.57 bitrate=N/A speed=15.7x    frame=23065 fps=376 q=-0.0 size=N/A time=00:16:02.00 bitrate=N/A speed=15.7x    frame=23259 fps=376 q=-0.0 size=N/A time=00:16:10.09 bitrate=N/A speed=15.7x    frame=23455 fps=376 q=-0.0 size=N/A time=00:16:18.26 bitrate=N/A speed=15.7x    frame=23661 fps=376 q=-0.0 size=N/A time=00:16:26.86 bitrate=N/A speed=15.7x    frame=23859 fps=376 q=-0.0 size=N/A time=00:16:35.11 bitrate=N/A speed=15.7x    frame=24063 fps=376 q=-0.0 size=N/A time=00:16:43.62 bitrate=N/A speed=15.7x    frame=24256 fps=376 q=-0.0 size=N/A time=00:16:51.67 bitrate=N/A speed=15.7x    frame=24449 fps=376 q=-0.0 size=N/A time=00:16:59.72 bitrate=N/A speed=15.7x    frame=24660 fps=376 q=-0.0 size=N/A time=00:17:08.52 bitrate=N/A speed=15.7x    frame=24858 fps=376 q=-0.0 size=N/A time=00:17:16.78 bitrate=N/A speed=15.7x    frame=25057 fps=377 q=-0.0 size=N/A time=00:17:25.08 bitrate=N/A speed=15.7x    frame=25255 fps=377 q=-0.0 size=N/A time=00:17:33.34 bitrate=N/A speed=15.7x    frame=25460 fps=377 q=-0.0 size=N/A time=00:17:41.89 bitrate=N/A speed=15.7x    frame=25663 fps=377 q=-0.0 size=N/A time=00:17:50.36 bitrate=N/A speed=15.7x    frame=25859 fps=377 q=-0.0 size=N/A time=00:17:58.53 bitrate=N/A speed=15.7x    frame=26060 fps=377 q=-0.0 size=N/A time=00:18:06.91 bitrate=N/A speed=15.7x    frame=26264 fps=377 q=-0.0 size=N/A time=00:18:15.42 bitrate=N/A speed=15.7x    frame=26471 fps=377 q=-0.0 size=N/A time=00:18:24.06 bitrate=N/A speed=15.7x    frame=26668 fps=377 q=-0.0 size=N/A time=00:18:32.27 bitrate=N/A speed=15.7x    frame=26868 fps=377 q=-0.0 size=N/A time=00:18:40.61 bitrate=N/A speed=15.7x    frame=27052 fps=377 q=-0.0 size=N/A time=00:18:48.29 bitrate=N/A speed=15.7x    frame=27244 fps=377 q=-0.0 size=N/A time=00:18:56.30 bitrate=N/A speed=15.7x    frame=27441 fps=377 q=-0.0 size=N/A time=00:19:04.51 bitrate=N/A speed=15.7x    frame=27638 fps=377 q=-0.0 size=N/A time=00:19:12.73 bitrate=N/A speed=15.7x    frame=27831 fps=377 q=-0.0 size=N/A time=00:19:20.78 bitrate=N/A speed=15.7x    frame=28031 fps=377 q=-0.0 size=N/A time=00:19:29.12 bitrate=N/A speed=15.7x    frame=28225 fps=377 q=-0.0 size=N/A time=00:19:37.21 bitrate=N/A speed=15.7x    frame=28418 fps=377 q=-0.0 size=N/A time=00:19:45.26 bitrate=N/A speed=15.7x    frame=28617 fps=377 q=-0.0 size=N/A time=00:19:53.56 bitrate=N/A speed=15.7x    frame=28807 fps=377 q=-0.0 size=N/A time=00:20:01.49 bitrate=N/A speed=15.7x    frame=28981 fps=377 q=-0.0 size=N/A time=00:20:08.74 bitrate=N/A speed=15.7x    frame=29164 fps=377 q=-0.0 size=N/A time=00:20:16.38 bitrate=N/A speed=15.7x    frame=29352 fps=377 q=-0.0 size=N/A time=00:20:24.22 bitrate=N/A speed=15.7x    frame=29527 fps=376 q=-0.0 size=N/A time=00:20:31.52 bitrate=N/A speed=15.7x    frame=29714 fps=376 q=-0.0 size=N/A time=00:20:39.32 bitrate=N/A speed=15.7x    frame=29894 fps=376 q=-0.0 size=N/A time=00:20:46.82 bitrate=N/A speed=15.7x    frame=30057 fps=376 q=-0.0 size=N/A time=00:20:53.62 bitrate=N/A speed=15.7x    frame=30255 fps=376 q=-0.0 size=N/A time=00:21:01.88 bitrate=N/A speed=15.7x    frame=30449 fps=376 q=-0.0 size=N/A time=00:21:09.97 bitrate=N/A speed=15.7x    frame=30652 fps=376 q=-0.0 size=N/A time=00:21:18.44 bitrate=N/A speed=15.7x    frame=30856 fps=376 q=-0.0 size=N/A time=00:21:26.95 bitrate=N/A speed=15.7x    frame=31050 fps=376 q=-0.0 size=N/A time=00:21:35.04 bitrate=N/A speed=15.7x    frame=31243 fps=376 q=-0.0 size=N/A time=00:21:43.09 bitrate=N/A speed=15.7x    frame=31433 fps=376 q=-0.0 size=N/A time=00:21:51.01 bitrate=N/A speed=15.7x    frame=31640 fps=376 q=-0.0 size=N/A time=00:21:59.65 bitrate=N/A speed=15.7x    frame=31834 fps=376 q=-0.0 size=N/A time=00:22:07.74 bitrate=N/A speed=15.7x    frame=32022 fps=376 q=-0.0 size=N/A time=00:22:15.58 bitrate=N/A speed=15.7x    frame=32218 fps=376 q=-0.0 size=N/A time=00:22:23.75 bitrate=N/A speed=15.7x    frame=32417 fps=376 q=-0.0 size=N/A time=00:22:32.05 bitrate=N/A speed=15.7x    frame=32616 fps=376 q=-0.0 size=N/A time=00:22:40.35 bitrate=N/A speed=15.7x    frame=32762 fps=376 q=-0.0 size=N/A time=00:22:46.44 bitrate=N/A speed=15.7x    frame=32935 fps=375 q=-0.0 size=N/A time=00:22:53.66 bitrate=N/A speed=15.7x    frame=33132 fps=375 q=-0.0 size=N/A time=00:23:01.88 bitrate=N/A speed=15.7x    frame=33324 fps=375 q=-0.0 size=N/A time=00:23:09.88 bitrate=N/A speed=15.7x    frame=33494 fps=375 q=-0.0 size=N/A time=00:23:16.97 bitrate=N/A speed=15.6x    frame=33654 fps=375 q=-0.0 size=N/A time=00:23:23.65 bitrate=N/A speed=15.6x    frame=33794 fps=374 q=-0.0 size=N/A time=00:23:29.49 bitrate=N/A speed=15.6x    frame=33942 fps=374 q=-0.0 size=N/A time=00:23:35.66 bitrate=N/A speed=15.6x    frame=34112 fps=373 q=-0.0 size=N/A time=00:23:42.75 bitrate=N/A speed=15.6x    frame=34272 fps=373 q=-0.0 size=N/A time=00:23:49.42 bitrate=N/A speed=15.6x    frame=34404 fps=372 q=-0.0 size=N/A time=00:23:54.93 bitrate=N/A speed=15.5x    frame=34580 fps=372 q=-0.0 size=N/A time=00:24:02.27 bitrate=N/A speed=15.5x    [Parsed_ssim_16 @ 0000021c617a7fc0] SSIM Y:0.994287 (22.431510) U:0.994105 (22.295085) V:0.993723 (22.022191) All:0.994163 (22.337890)
[out#0/null @ 0000021c546b3a00] video:14903KiB audio:271276KiB subtitle:0KiB other streams:0KiB global headers:0KiB muxing overhead: unknown
frame=34683 fps=372 q=-0.0 Lsize=N/A time=00:24:06.57 bitrate=N/A speed=15.5x    
